<mxfile host="app.diagrams.net" modified="2023-04-07T13:00:45.733Z" agent="Mozilla/5.0 (Windows NT 10.0; Win64; x64) AppleWebKit/537.36 (KHTML, like Gecko) Chrome/111.0.0.0 Safari/537.36 OPR/97.0.0.0" etag="55-M-sv_eBa5yHNBX5uP" version="21.1.4" type="device">
  <diagram name="Page-1" id="mJmtAXgWFhnzZgA4SPXG">
    <mxGraphModel dx="1400" dy="795" grid="1" gridSize="10" guides="1" tooltips="1" connect="1" arrows="1" fold="1" page="1" pageScale="1" pageWidth="850" pageHeight="1100" math="0" shadow="0">
      <root>
        <mxCell id="0" />
        <mxCell id="1" parent="0" />
        <mxCell id="wy4-SB1rx4qGbxA84kPh-1" value="&lt;font style=&quot;font-size: 38px;&quot;&gt;Home Page&lt;/font&gt;" style="rounded=0;whiteSpace=wrap;html=1;" vertex="1" parent="1">
          <mxGeometry x="130" y="190" width="220" height="100" as="geometry" />
        </mxCell>
        <mxCell id="wy4-SB1rx4qGbxA84kPh-2" value="" style="endArrow=classic;html=1;rounded=0;strokeWidth=6;" edge="1" parent="1">
          <mxGeometry width="50" height="50" relative="1" as="geometry">
            <mxPoint x="350" y="239.5" as="sourcePoint" />
            <mxPoint x="470" y="239.5" as="targetPoint" />
          </mxGeometry>
        </mxCell>
        <mxCell id="wy4-SB1rx4qGbxA84kPh-3" value="&lt;span style=&quot;font-size: 38px;&quot;&gt;Register&lt;/span&gt;" style="rounded=0;whiteSpace=wrap;html=1;" vertex="1" parent="1">
          <mxGeometry x="470" y="190" width="220" height="100" as="geometry" />
        </mxCell>
        <mxCell id="wy4-SB1rx4qGbxA84kPh-4" value="&lt;span style=&quot;font-size: 38px;&quot;&gt;Login&lt;/span&gt;" style="rounded=0;whiteSpace=wrap;html=1;" vertex="1" parent="1">
          <mxGeometry x="130" y="390" width="220" height="100" as="geometry" />
        </mxCell>
        <mxCell id="wy4-SB1rx4qGbxA84kPh-6" value="" style="endArrow=classic;html=1;rounded=0;strokeWidth=6;entryX=0.5;entryY=0;entryDx=0;entryDy=0;" edge="1" parent="1" target="wy4-SB1rx4qGbxA84kPh-4">
          <mxGeometry width="50" height="50" relative="1" as="geometry">
            <mxPoint x="239.5" y="290" as="sourcePoint" />
            <mxPoint x="239.5" y="330" as="targetPoint" />
          </mxGeometry>
        </mxCell>
        <mxCell id="wy4-SB1rx4qGbxA84kPh-11" value="" style="endArrow=classic;html=1;rounded=0;strokeWidth=6;entryX=1;entryY=0.5;entryDx=0;entryDy=0;" edge="1" parent="1" target="wy4-SB1rx4qGbxA84kPh-4">
          <mxGeometry width="50" height="50" relative="1" as="geometry">
            <mxPoint x="579.6600000000001" y="290" as="sourcePoint" />
            <mxPoint x="580" y="459" as="targetPoint" />
          </mxGeometry>
        </mxCell>
        <mxCell id="wy4-SB1rx4qGbxA84kPh-12" value="" style="endArrow=classic;html=1;rounded=0;strokeWidth=6;entryX=0.5;entryY=0;entryDx=0;entryDy=0;" edge="1" parent="1">
          <mxGeometry width="50" height="50" relative="1" as="geometry">
            <mxPoint x="239.41" y="490" as="sourcePoint" />
            <mxPoint x="239.91" y="590" as="targetPoint" />
          </mxGeometry>
        </mxCell>
        <mxCell id="wy4-SB1rx4qGbxA84kPh-13" value="&lt;span style=&quot;font-size: 38px;&quot;&gt;DashBoard&lt;/span&gt;" style="rounded=0;whiteSpace=wrap;html=1;" vertex="1" parent="1">
          <mxGeometry x="130" y="590" width="220" height="100" as="geometry" />
        </mxCell>
      </root>
    </mxGraphModel>
  </diagram>
</mxfile>
